<svg width="388" height="143" viewBox="0 0 388 143" fill="none" xmlns="http://www.w3.org/2000/svg">
<path d="M14.4298 83.384C11.2724 83.384 8.64842 82.424 6.55775 80.504C4.50975 78.584 3.48575 75.9387 3.48575 72.568V42.616H5.53375V54.2H14.3658V55.992H5.53375V72.568C5.53375 75.384 6.36575 77.6027 8.02975 79.224C9.73642 80.8027 11.8698 81.592 14.4298 81.592V83.384ZM19.8133 35H21.8613V60.152C22.7573 58.232 24.2719 56.6533 26.4053 55.416C28.5813 54.136 30.7786 53.496 32.9973 53.496C37.0506 53.496 40.1653 54.6053 42.3413 56.824C44.5599 59.0427 45.6693 62.1787 45.6693 66.232V83H43.6213V66.232C43.6213 62.7333 42.6826 60.0453 40.8053 58.168C38.9706 56.248 36.3679 55.288 32.9973 55.288C30.9493 55.288 29.0719 55.7787 27.3653 56.76C25.6586 57.6987 24.3146 59.0213 23.3333 60.728C22.3519 62.392 21.8613 64.2267 21.8613 66.232V83H19.8133V35ZM67.7668 81.976C69.9854 81.976 72.0974 81.4 74.1028 80.248C76.1081 79.096 77.7721 77.5173 79.0948 75.512V78.776C77.5161 80.5253 75.7881 81.8053 73.9108 82.616C72.0334 83.384 69.9001 83.768 67.5108 83.768C64.8654 83.768 62.3694 83.064 60.0228 81.656C57.7188 80.248 55.8628 78.3707 54.4548 76.024C53.0894 73.6773 52.4068 71.1813 52.4068 68.536C52.4068 65.6773 53.0894 63.1173 54.4548 60.856C55.8201 58.552 57.6761 56.76 60.0228 55.48C62.4121 54.2 65.0574 53.56 67.9588 53.56C72.3961 53.56 76.1721 55.3093 79.2868 58.808L59.1908 78.648C60.5988 79.8 61.9641 80.6533 63.2868 81.208C64.6094 81.72 66.1028 81.976 67.7668 81.976ZM54.4548 68.344C54.4548 71.8853 55.6281 74.9147 57.9748 77.432L76.7268 58.808C75.3188 57.5707 73.9534 56.696 72.6308 56.184C71.3081 55.6293 69.7294 55.352 67.8948 55.352C65.2921 55.352 62.9668 55.928 60.9188 57.08C58.9134 58.1893 57.3348 59.7253 56.1828 61.688C55.0308 63.6507 54.4548 65.8693 54.4548 68.344ZM88.5683 39.8V83H86.7123V34.296L122.04 78.136V35H123.896V83.704L88.5683 39.8ZM147.017 81.976C149.235 81.976 151.347 81.4 153.353 80.248C155.358 79.096 157.022 77.5173 158.345 75.512V78.776C156.766 80.5253 155.038 81.8053 153.161 82.616C151.283 83.384 149.15 83.768 146.761 83.768C144.115 83.768 141.619 83.064 139.273 81.656C136.969 80.248 135.113 78.3707 133.705 76.024C132.339 73.6773 131.657 71.1813 131.657 68.536C131.657 65.6773 132.339 63.1173 133.705 60.856C135.07 58.552 136.926 56.76 139.273 55.48C141.662 54.2 144.307 53.56 147.209 53.56C151.646 53.56 155.422 55.3093 158.537 58.808L138.441 78.648C139.849 79.8 141.214 80.6533 142.537 81.208C143.859 81.72 145.353 81.976 147.017 81.976ZM133.705 68.344C133.705 71.8853 134.878 74.9147 137.225 77.432L155.977 58.808C154.569 57.5707 153.203 56.696 151.881 56.184C150.558 55.6293 148.979 55.352 147.145 55.352C144.542 55.352 142.217 55.928 140.169 57.08C138.163 58.1893 136.585 59.7253 135.433 61.688C134.281 63.6507 133.705 65.8693 133.705 68.344ZM187.545 83.704L181.017 69.752L174.425 83.704L160.601 54.2H162.713L174.489 79.224L180.057 67.512L173.913 54.328H175.961L181.081 65.464L186.329 54.2H188.377L182.105 67.576L187.545 79.288L199.129 54.264H201.177L187.545 83.704Z" fill="white"/>
<path d="M255.741 35V83H253.629V38.072L230.973 83.896L208.445 37.496V83H206.333V35H209.341L230.973 79.544L252.797 35H255.741ZM278.381 83.704C275.651 83.704 273.112 83.0213 270.765 81.656C268.419 80.2907 266.563 78.456 265.197 76.152C263.832 73.8053 263.149 71.288 263.149 68.6C263.149 65.912 263.832 63.416 265.197 61.112C266.563 58.7653 268.419 56.9093 270.765 55.544C273.112 54.1787 275.651 53.496 278.381 53.496C281.155 53.496 283.779 54.2427 286.253 55.736C288.728 57.1867 290.456 59.0853 291.437 61.432V54.2H293.485V83H291.437V75.832C290.285 78.2213 288.493 80.1413 286.061 81.592C283.672 83 281.112 83.704 278.381 83.704ZM278.509 81.912C280.856 81.912 283.032 81.3147 285.037 80.12C287.043 78.8827 288.621 77.2613 289.773 75.256C290.968 73.208 291.565 70.9893 291.565 68.6C291.565 66.2533 290.968 64.056 289.773 62.008C288.579 59.96 286.979 58.3387 284.973 57.144C282.968 55.9067 280.792 55.288 278.445 55.288C276.099 55.288 273.901 55.9067 271.853 57.144C269.848 58.3813 268.227 60.024 266.989 62.072C265.795 64.12 265.197 66.3173 265.197 68.664C265.197 71.0107 265.795 73.208 266.989 75.256C268.227 77.2613 269.869 78.8827 271.917 80.12C273.965 81.3147 276.163 81.912 278.509 81.912ZM301.563 54.2H303.611V60.856C304.465 58.7653 305.702 57.1227 307.323 55.928C308.987 54.7333 310.865 54.136 312.955 54.136C314.278 54.136 315.622 54.4133 316.987 54.968V57.336C315.75 56.3973 314.363 55.928 312.827 55.928C311.291 55.928 309.798 56.3973 308.347 57.336C306.939 58.2747 305.787 59.5333 304.891 61.112C304.038 62.6907 303.611 64.376 303.611 66.168V83H301.563V54.2ZM322.063 35.128H324.111V64.184L335.503 54.2H338.127L324.943 65.72L341.455 83H338.703L324.111 67.64V83H322.063V35.128ZM358.329 81.976C360.548 81.976 362.66 81.4 364.665 80.248C366.671 79.096 368.335 77.5173 369.657 75.512V78.776C368.079 80.5253 366.351 81.8053 364.473 82.616C362.596 83.384 360.463 83.768 358.073 83.768C355.428 83.768 352.932 83.064 350.585 81.656C348.281 80.248 346.425 78.3707 345.017 76.024C343.652 73.6773 342.969 71.1813 342.969 68.536C342.969 65.6773 343.652 63.1173 345.017 60.856C346.383 58.552 348.239 56.76 350.585 55.48C352.975 54.2 355.62 53.56 358.521 53.56C362.959 53.56 366.735 55.3093 369.849 58.808L349.753 78.648C351.161 79.8 352.527 80.6533 353.849 81.208C355.172 81.72 356.665 81.976 358.329 81.976ZM345.017 68.344C345.017 71.8853 346.191 74.9147 348.537 77.432L367.289 58.808C365.881 57.5707 364.516 56.696 363.193 56.184C361.871 55.6293 360.292 55.352 358.457 55.352C355.855 55.352 353.529 55.928 351.481 57.08C349.476 58.1893 347.897 59.7253 346.745 61.688C345.593 63.6507 345.017 65.8693 345.017 68.344ZM386.555 83.384C383.397 83.384 380.773 82.424 378.683 80.504C376.635 78.584 375.611 75.9387 375.611 72.568V42.616H377.659V54.2H386.491V55.992H377.659V72.568C377.659 75.384 378.491 77.6027 380.155 79.224C381.861 80.8027 383.995 81.592 386.555 81.592V83.384ZM87.433 108.538C87.889 108.61 88.303 108.796 88.675 109.096C89.059 109.396 89.359 109.768 89.575 110.212C89.803 110.656 89.917 111.13 89.917 111.634C89.917 112.27 89.755 112.846 89.431 113.362C89.107 113.866 88.633 114.268 88.009 114.568C87.397 114.856 86.671 115 85.831 115H81.151V102.454H85.651C86.503 102.454 87.229 102.598 87.829 102.886C88.429 103.162 88.879 103.54 89.179 104.02C89.479 104.5 89.629 105.04 89.629 105.64C89.629 106.384 89.425 107.002 89.017 107.494C88.621 107.974 88.093 108.322 87.433 108.538ZM82.789 107.872H85.543C86.311 107.872 86.905 107.692 87.325 107.332C87.745 106.972 87.955 106.474 87.955 105.838C87.955 105.202 87.745 104.704 87.325 104.344C86.905 103.984 86.299 103.804 85.507 103.804H82.789V107.872ZM85.687 113.65C86.503 113.65 87.139 113.458 87.595 113.074C88.051 112.69 88.279 112.156 88.279 111.472C88.279 110.776 88.039 110.23 87.559 109.834C87.079 109.426 86.437 109.222 85.633 109.222H82.789V113.65H85.687ZM102.738 105.136V115H101.1V113.542C100.788 114.046 100.35 114.442 99.7861 114.73C99.2341 115.006 98.6221 115.144 97.9501 115.144C97.1821 115.144 96.4921 114.988 95.8801 114.676C95.2681 114.352 94.7821 113.872 94.4221 113.236C94.0741 112.6 93.9001 111.826 93.9001 110.914V105.136H95.5201V110.698C95.5201 111.67 95.7661 112.42 96.2581 112.948C96.7501 113.464 97.4221 113.722 98.2741 113.722C99.1501 113.722 99.8401 113.452 100.344 112.912C100.848 112.372 101.1 111.586 101.1 110.554V105.136H102.738ZM115.8 105.136L109.86 119.644H108.168L110.112 114.892L106.134 105.136H107.952L111.048 113.128L114.108 105.136H115.8ZM132.685 107.71V109.096H125.503V107.71H132.685ZM148.136 115.126C147.308 115.126 146.564 114.982 145.904 114.694C145.256 114.394 144.746 113.986 144.374 113.47C144.002 112.942 143.81 112.336 143.798 111.652H145.544C145.604 112.24 145.844 112.738 146.264 113.146C146.696 113.542 147.32 113.74 148.136 113.74C148.916 113.74 149.528 113.548 149.972 113.164C150.428 112.768 150.656 112.264 150.656 111.652C150.656 111.172 150.524 110.782 150.26 110.482C149.996 110.182 149.666 109.954 149.27 109.798C148.874 109.642 148.34 109.474 147.668 109.294C146.84 109.078 146.174 108.862 145.67 108.646C145.178 108.43 144.752 108.094 144.392 107.638C144.044 107.17 143.87 106.546 143.87 105.766C143.87 105.082 144.044 104.476 144.392 103.948C144.74 103.42 145.226 103.012 145.85 102.724C146.486 102.436 147.212 102.292 148.028 102.292C149.204 102.292 150.164 102.586 150.908 103.174C151.664 103.762 152.09 104.542 152.186 105.514H150.386C150.326 105.034 150.074 104.614 149.63 104.254C149.186 103.882 148.598 103.696 147.866 103.696C147.182 103.696 146.624 103.876 146.192 104.236C145.76 104.584 145.544 105.076 145.544 105.712C145.544 106.168 145.67 106.54 145.922 106.828C146.186 107.116 146.504 107.338 146.876 107.494C147.26 107.638 147.794 107.806 148.478 107.998C149.306 108.226 149.972 108.454 150.476 108.682C150.98 108.898 151.412 109.24 151.772 109.708C152.132 110.164 152.312 110.788 152.312 111.58C152.312 112.192 152.15 112.768 151.826 113.308C151.502 113.848 151.022 114.286 150.386 114.622C149.75 114.958 149 115.126 148.136 115.126ZM165.523 109.69C165.523 110.002 165.505 110.332 165.469 110.68H157.585C157.645 111.652 157.975 112.414 158.575 112.966C159.187 113.506 159.925 113.776 160.789 113.776C161.497 113.776 162.085 113.614 162.553 113.29C163.033 112.954 163.369 112.51 163.561 111.958H165.325C165.061 112.906 164.533 113.68 163.741 114.28C162.949 114.868 161.965 115.162 160.789 115.162C159.853 115.162 159.013 114.952 158.269 114.532C157.537 114.112 156.961 113.518 156.541 112.75C156.121 111.97 155.911 111.07 155.911 110.05C155.911 109.03 156.115 108.136 156.523 107.368C156.931 106.6 157.501 106.012 158.233 105.604C158.977 105.184 159.829 104.974 160.789 104.974C161.725 104.974 162.553 105.178 163.273 105.586C163.993 105.994 164.545 106.558 164.929 107.278C165.325 107.986 165.523 108.79 165.523 109.69ZM163.831 109.348C163.831 108.724 163.693 108.19 163.417 107.746C163.141 107.29 162.763 106.948 162.283 106.72C161.815 106.48 161.293 106.36 160.717 106.36C159.889 106.36 159.181 106.624 158.593 107.152C158.017 107.68 157.687 108.412 157.603 109.348H163.831ZM171.123 101.68V115H169.485V101.68H171.123ZM177.352 101.68V115H175.714V101.68H177.352ZM195.383 107.71V109.096H188.201V107.71H195.383ZM216.72 115H215.082L208.494 105.01V115H206.856V102.436H208.494L215.082 112.408V102.436H216.72V115ZM230.312 109.69C230.312 110.002 230.294 110.332 230.258 110.68H222.374C222.434 111.652 222.764 112.414 223.364 112.966C223.976 113.506 224.714 113.776 225.578 113.776C226.286 113.776 226.874 113.614 227.342 113.29C227.822 112.954 228.158 112.51 228.35 111.958H230.114C229.85 112.906 229.322 113.68 228.53 114.28C227.738 114.868 226.754 115.162 225.578 115.162C224.642 115.162 223.802 114.952 223.058 114.532C222.326 114.112 221.75 113.518 221.33 112.75C220.91 111.97 220.7 111.07 220.7 110.05C220.7 109.03 220.904 108.136 221.312 107.368C221.72 106.6 222.29 106.012 223.022 105.604C223.766 105.184 224.618 104.974 225.578 104.974C226.514 104.974 227.342 105.178 228.062 105.586C228.782 105.994 229.334 106.558 229.718 107.278C230.114 107.986 230.312 108.79 230.312 109.69ZM228.62 109.348C228.62 108.724 228.482 108.19 228.206 107.746C227.93 107.29 227.552 106.948 227.072 106.72C226.604 106.48 226.082 106.36 225.506 106.36C224.678 106.36 223.97 106.624 223.382 107.152C222.806 107.68 222.476 108.412 222.392 109.348H228.62ZM238.342 104.974C239.194 104.974 239.938 105.16 240.574 105.532C241.222 105.904 241.702 106.372 242.014 106.936V105.136H243.67V115.216C243.67 116.116 243.478 116.914 243.094 117.61C242.71 118.318 242.158 118.87 241.438 119.266C240.73 119.662 239.902 119.86 238.954 119.86C237.658 119.86 236.578 119.554 235.714 118.942C234.85 118.33 234.34 117.496 234.184 116.44H235.804C235.984 117.04 236.356 117.52 236.92 117.88C237.484 118.252 238.162 118.438 238.954 118.438C239.854 118.438 240.586 118.156 241.15 117.592C241.726 117.028 242.014 116.236 242.014 115.216V113.146C241.69 113.722 241.21 114.202 240.574 114.586C239.938 114.97 239.194 115.162 238.342 115.162C237.466 115.162 236.668 114.946 235.948 114.514C235.24 114.082 234.682 113.476 234.274 112.696C233.866 111.916 233.662 111.028 233.662 110.032C233.662 109.024 233.866 108.142 234.274 107.386C234.682 106.618 235.24 106.024 235.948 105.604C236.668 105.184 237.466 104.974 238.342 104.974ZM242.014 110.05C242.014 109.306 241.864 108.658 241.564 108.106C241.264 107.554 240.856 107.134 240.34 106.846C239.836 106.546 239.278 106.396 238.666 106.396C238.054 106.396 237.496 106.54 236.992 106.828C236.488 107.116 236.086 107.536 235.786 108.088C235.486 108.64 235.336 109.288 235.336 110.032C235.336 110.788 235.486 111.448 235.786 112.012C236.086 112.564 236.488 112.99 236.992 113.29C237.496 113.578 238.054 113.722 238.666 113.722C239.278 113.722 239.836 113.578 240.34 113.29C240.856 112.99 241.264 112.564 241.564 112.012C241.864 111.448 242.014 110.794 242.014 110.05ZM252.54 115.162C251.616 115.162 250.776 114.952 250.02 114.532C249.276 114.112 248.688 113.518 248.256 112.75C247.836 111.97 247.626 111.07 247.626 110.05C247.626 109.042 247.842 108.154 248.274 107.386C248.718 106.606 249.318 106.012 250.074 105.604C250.83 105.184 251.676 104.974 252.612 104.974C253.548 104.974 254.394 105.184 255.15 105.604C255.906 106.012 256.5 106.6 256.932 107.368C257.376 108.136 257.598 109.03 257.598 110.05C257.598 111.07 257.37 111.97 256.914 112.75C256.47 113.518 255.864 114.112 255.096 114.532C254.328 114.952 253.476 115.162 252.54 115.162ZM252.54 113.722C253.128 113.722 253.68 113.584 254.196 113.308C254.712 113.032 255.126 112.618 255.438 112.066C255.762 111.514 255.924 110.842 255.924 110.05C255.924 109.258 255.768 108.586 255.456 108.034C255.144 107.482 254.736 107.074 254.232 106.81C253.728 106.534 253.182 106.396 252.594 106.396C251.994 106.396 251.442 106.534 250.938 106.81C250.446 107.074 250.05 107.482 249.75 108.034C249.45 108.586 249.3 109.258 249.3 110.05C249.3 110.854 249.444 111.532 249.732 112.084C250.032 112.636 250.428 113.05 250.92 113.326C251.412 113.59 251.952 113.722 252.54 113.722ZM263.55 106.486V112.3C263.55 112.78 263.652 113.122 263.856 113.326C264.06 113.518 264.414 113.614 264.918 113.614H266.124V115H264.648C263.736 115 263.052 114.79 262.596 114.37C262.14 113.95 261.912 113.26 261.912 112.3V106.486H260.634V105.136H261.912V102.652H263.55V105.136H266.124V106.486H263.55ZM270.754 103.534C270.442 103.534 270.178 103.426 269.962 103.21C269.746 102.994 269.638 102.73 269.638 102.418C269.638 102.106 269.746 101.842 269.962 101.626C270.178 101.41 270.442 101.302 270.754 101.302C271.054 101.302 271.306 101.41 271.51 101.626C271.726 101.842 271.834 102.106 271.834 102.418C271.834 102.73 271.726 102.994 271.51 103.21C271.306 103.426 271.054 103.534 270.754 103.534ZM271.546 105.136V115H269.908V105.136H271.546ZM275.526 110.032C275.526 109.024 275.73 108.142 276.138 107.386C276.546 106.618 277.104 106.024 277.812 105.604C278.532 105.184 279.33 104.974 280.206 104.974C281.07 104.974 281.82 105.16 282.456 105.532C283.092 105.904 283.566 106.372 283.878 106.936V105.136H285.534V115H283.878V113.164C283.554 113.74 283.068 114.22 282.42 114.604C281.784 114.976 281.04 115.162 280.188 115.162C279.312 115.162 278.52 114.946 277.812 114.514C277.104 114.082 276.546 113.476 276.138 112.696C275.73 111.916 275.526 111.028 275.526 110.032ZM283.878 110.05C283.878 109.306 283.728 108.658 283.428 108.106C283.128 107.554 282.72 107.134 282.204 106.846C281.7 106.546 281.142 106.396 280.53 106.396C279.918 106.396 279.36 106.54 278.856 106.828C278.352 107.116 277.95 107.536 277.65 108.088C277.35 108.64 277.2 109.288 277.2 110.032C277.2 110.788 277.35 111.448 277.65 112.012C277.95 112.564 278.352 112.99 278.856 113.29C279.36 113.578 279.918 113.722 280.53 113.722C281.142 113.722 281.7 113.578 282.204 113.29C282.72 112.99 283.128 112.564 283.428 112.012C283.728 111.448 283.878 110.794 283.878 110.05ZM292.1 106.486V112.3C292.1 112.78 292.202 113.122 292.406 113.326C292.61 113.518 292.964 113.614 293.468 113.614H294.674V115H293.198C292.286 115 291.602 114.79 291.146 114.37C290.69 113.95 290.462 113.26 290.462 112.3V106.486H289.184V105.136H290.462V102.652H292.1V105.136H294.674V106.486H292.1ZM307.459 109.69C307.459 110.002 307.441 110.332 307.405 110.68H299.521C299.581 111.652 299.911 112.414 300.511 112.966C301.123 113.506 301.861 113.776 302.725 113.776C303.433 113.776 304.021 113.614 304.489 113.29C304.969 112.954 305.305 112.51 305.497 111.958H307.261C306.997 112.906 306.469 113.68 305.677 114.28C304.885 114.868 303.901 115.162 302.725 115.162C301.789 115.162 300.949 114.952 300.205 114.532C299.473 114.112 298.897 113.518 298.477 112.75C298.057 111.97 297.847 111.07 297.847 110.05C297.847 109.03 298.051 108.136 298.459 107.368C298.867 106.6 299.437 106.012 300.169 105.604C300.913 105.184 301.765 104.974 302.725 104.974C303.661 104.974 304.489 105.178 305.209 105.586C305.929 105.994 306.481 106.558 306.865 107.278C307.261 107.986 307.459 108.79 307.459 109.69ZM305.767 109.348C305.767 108.724 305.629 108.19 305.353 107.746C305.077 107.29 304.699 106.948 304.219 106.72C303.751 106.48 303.229 106.36 302.653 106.36C301.825 106.36 301.117 106.624 300.529 107.152C299.953 107.68 299.623 108.412 299.539 109.348H305.767Z" fill="#354259"/>
</svg>
