<svg width="28" height="31" viewBox="0 0 28 31" fill="none" xmlns="http://www.w3.org/2000/svg">
<path d="M20.3576 19.538H19.0813L18.629 19.0691C20.5676 16.6379 21.5693 13.321 21.02 9.79567C20.2607 4.96793 16.5127 1.11269 11.9892 0.522242C5.15552 -0.380788 -0.595749 5.8015 0.244324 13.1473C0.793602 18.0098 4.38007 22.0387 8.87123 22.8549C12.1507 23.4453 15.2364 22.3686 17.4981 20.2847L17.9343 20.771V22.1429L24.8003 29.5234C25.4627 30.2354 26.5451 30.2354 27.2074 29.5234C27.8698 28.8114 27.8698 27.6479 27.2074 26.9359L20.3576 19.538ZM10.6645 19.538C6.6418 19.538 3.3946 16.0474 3.3946 11.7233C3.3946 7.39917 6.6418 3.90861 10.6645 3.90861C14.6871 3.90861 17.9343 7.39917 17.9343 11.7233C17.9343 16.0474 14.6871 19.538 10.6645 19.538Z" fill="white" fill-opacity="0.6"/>
</svg>
